<?xml version="1.0" encoding="utf-8"?>
<!-- Generator: Adobe Illustrator 19.0.0, SVG Export Plug-In . SVG Version: 6.00 Build 0)  -->
<svg version="1.1" id="Calque_1" xmlns="http://www.w3.org/2000/svg" xmlns:xlink="http://www.w3.org/1999/xlink" x="0px" y="0px"
	 viewBox="0 0 1280 800" style="enable-background:new 0 0 1280 800;" xml:space="preserve">
<style type="text/css">
	.st0{fill:#1D1D1B;}
	.st1{font-family:'LemonMilk';}
	.st2{font-size:74.3021px;}
	.st3{letter-spacing:16;}
	.st4{clip-path:url(#XMLID_12_);}
	.st5{clip-path:url(#XMLID_13_);fill:#1D1D1B;}
	.st6{clip-path:url(#XMLID_13_);fill:none;stroke:#1D1D1B;stroke-miterlimit:10;}
</style>
<g id="XMLID_40_">
	<path id="XMLID_41_" class="st0" d="M387.6,556.4h-19.8L409.4,450l41.7,106.4h-19.9L409.4,500L387.6,556.4z"/>
	<path id="XMLID_44_" class="st0" d="M530.4,452.2v20.8h-22.4v83.5h-18.4v-83.5H467v-20.8H530.4z"/>
	<path id="XMLID_46_" class="st0" d="M581.2,452.2l16.7,36.2l16.7-36.2h20.8L607,511.7v44.7h-18.3v-44.7l-28.3-59.6H581.2z"/>
	<path id="XMLID_48_" class="st0" d="M700.9,504.4c7.5,0,13.8-7.2,13.8-15.7c0-8.5-6.3-15.8-13.8-15.8h-13.7l0,83.5h-18.4v-31.3v-73
		h32.1c8.9,0,16.4,3.6,22.7,10.7c6.3,7.2,9.5,15.8,9.5,25.9c0,10.2-3.2,18.8-9.5,25.7c-6.3,7.1-13.9,10.7-22.7,10.7V504.4z"/>
	<path id="XMLID_90_" class="st0" d="M766.5,452.2h18.4v104.3h-18.4V452.2z"/>
	<path id="XMLID_105_" class="st0" d="M840,452.2v46.1l23.4-46.1h21.2l-27,53l31.4,51.3h-22.3L840,512.7v43.7h-18.3V452.2H840z"/>
</g>
<text id="XMLID_58_" transform="matrix(0.8762 0 0 1 497.7451 652.9492)" class="st0 st1 st2 st3">HOUsE</text>
<g id="XMLID_1_">
	<g id="XMLID_2_">
		<defs>
			<rect id="XMLID_3_" x="37.8" y="-131.3" width="1262" height="892.3"/>
		</defs>
		<clipPath id="XMLID_12_">
			<use xlink:href="#XMLID_3_"  style="overflow:visible;"/>
		</clipPath>
		<g id="XMLID_5_" class="st4">
			<defs>
				<rect id="XMLID_6_" x="37.8" y="-131.3" width="1262" height="892.3"/>
			</defs>
			<clipPath id="XMLID_13_">
				<use xlink:href="#XMLID_6_"  style="overflow:visible;"/>
			</clipPath>
			<path id="XMLID_11_" class="st5" d="M909.8,399.3C902,260.2,786.7,149.8,645.6,149.8c-55.3,0-106.7,17-149.2,46
				c12.4,8.5,20.6,22.7,20.6,38.9c0,26-21.1,47-47,47c-16.6,0-31.1-8.6-39.5-21.5c-28.4,39.6-46.2,87.4-49.1,139.1H553
				c0-0.7,0-1.5,0-2.2c0-96.7,78.4-175.1,175.1-175.1s175.1,78.4,175.1,175.1c0,0.8,0,1.5,0,2.2H909.8z"/>
			<path id="XMLID_10_" class="st6" d="M909.8,399.3C902,260.2,786.7,149.8,645.6,149.8c-55.3,0-106.7,17-149.2,46
				c12.4,8.5,20.6,22.7,20.6,38.9c0,26-21.1,47-47,47c-16.6,0-31.1-8.6-39.5-21.5c-28.4,39.6-46.2,87.4-49.1,139.1H553
				c0-0.7,0-1.5,0-2.2c0-96.7,78.4-175.1,175.1-175.1s175.1,78.4,175.1,175.1c0,0.8,0,1.5,0,2.2H909.8z"/>
			<path id="XMLID_9_" class="st5" d="M750.1,321.6c-0.6-0.2-1.1-0.5-1.7-0.7c-21.5-7.7-44,8.8-44,31.6v41.6c0,2.8,2.3,5.1,5.1,5.1
				h55.7c2.8,0,5.1-2.3,5.1-5.1v-41.9C770.3,339,762.4,326.7,750.1,321.6"/>
			<path id="XMLID_8_" class="st6" d="M750.1,321.6c-0.6-0.2-1.1-0.5-1.7-0.7c-21.5-7.7-44,8.8-44,31.6v41.6c0,2.8,2.3,5.1,5.1,5.1
				h55.7c2.8,0,5.1-2.3,5.1-5.1v-41.9C770.3,339,762.4,326.7,750.1,321.6z"/>
			<path id="XMLID_7_" class="st5" d="M460.6,234.7c0-17.7,11.3-32.8,27.1-38.4c-4.2-1.5-8.8-2.3-13.5-2.3
				c-22.4,0-40.6,18.2-40.6,40.7c0,22.5,18.2,40.7,40.6,40.7c4.7,0,9.3-0.8,13.5-2.3C471.9,267.5,460.6,252.4,460.6,234.7"/>
		</g>
	</g>
</g>
</svg>
