<?xml version="1.0" encoding="utf-8"?>
<!-- Generator: Adobe Illustrator 19.0.0, SVG Export Plug-In . SVG Version: 6.00 Build 0)  -->
<svg version="1.1" id="Calque_1" xmlns="http://www.w3.org/2000/svg" xmlns:xlink="http://www.w3.org/1999/xlink" x="0px" y="0px"
	 viewBox="0 0 1280 800" style="enable-background:new 0 0 1280 800;" xml:space="preserve">
<style type="text/css">
	.st0{clip-path:url(#XMLID_12_);}
	.st1{clip-path:url(#XMLID_13_);fill:#1D1D1B;}
	.st2{clip-path:url(#XMLID_13_);fill:none;stroke:#1D1D1B;stroke-miterlimit:10;}
</style>
<g id="XMLID_1_">
	<g id="XMLID_2_">
		<defs>
			<rect id="XMLID_3_" x="-263.1" y="-239.2" width="1807.7" height="1278.2"/>
		</defs>
		<clipPath id="XMLID_12_">
			<use xlink:href="#XMLID_3_"  style="overflow:visible;"/>
		</clipPath>
		<g id="XMLID_5_" class="st0">
			<defs>
				<rect id="XMLID_6_" x="-263.1" y="-239.2" width="1807.7" height="1278.2"/>
			</defs>
			<clipPath id="XMLID_13_">
				<use xlink:href="#XMLID_6_"  style="overflow:visible;"/>
			</clipPath>
			<path id="XMLID_11_" class="st1" d="M986,520.9c-11.1-199.3-176.3-357.5-378.4-357.5c-79.3,0-152.8,24.3-213.7,65.9
				c17.8,12.1,29.5,32.6,29.5,55.7c0,37.2-30.2,67.4-67.4,67.4c-23.7,0-44.6-12.3-56.6-30.8c-40.7,56.7-66.2,125.1-70.3,199.3h245.6
				c0-1.1,0-2.1,0-3.2c0-138.5,112.3-250.9,250.9-250.9s250.9,112.3,250.9,250.9c0,1.1,0,2.1,0,3.2H986z"/>
			<path id="XMLID_10_" class="st2" d="M986,520.9c-11.1-199.3-176.3-357.5-378.4-357.5c-79.3,0-152.8,24.3-213.7,65.9
				c17.8,12.1,29.5,32.6,29.5,55.7c0,37.2-30.2,67.4-67.4,67.4c-23.7,0-44.6-12.3-56.6-30.8c-40.7,56.7-66.2,125.1-70.3,199.3h245.6
				c0-1.1,0-2.1,0-3.2c0-138.5,112.3-250.9,250.9-250.9s250.9,112.3,250.9,250.9c0,1.1,0,2.1,0,3.2H986z"/>
			<path id="XMLID_9_" class="st1" d="M757.2,409.6c-0.8-0.3-1.6-0.7-2.5-0.9c-30.8-11.1-63,12.6-63,45.3v59.6
				c0,4.1,3.3,7.3,7.3,7.3h79.8c4.1,0,7.3-3.3,7.3-7.3v-60C786.2,434.4,774.9,416.8,757.2,409.6"/>
			<path id="XMLID_8_" class="st2" d="M757.2,409.6c-0.8-0.3-1.6-0.7-2.5-0.9c-30.8-11.1-63,12.6-63,45.3v59.6
				c0,4.1,3.3,7.3,7.3,7.3h79.8c4.1,0,7.3-3.3,7.3-7.3v-60C786.2,434.4,774.9,416.8,757.2,409.6z"/>
			<path id="XMLID_7_" class="st1" d="M342.6,285c0-25.4,16.2-47,38.8-55c-6.1-2.1-12.6-3.3-19.4-3.3c-32.1,0-58.2,26.1-58.2,58.3
				c0,32.2,26,58.3,58.2,58.3c6.8,0,13.3-1.2,19.4-3.3C358.8,332,342.6,310.4,342.6,285"/>
		</g>
	</g>
</g>
</svg>
