<svg version="1.1" xmlns="http://www.w3.org/2000/svg" xmlns:xlink="http://www.w3.org/1999/xlink" width="48" height="48"><defs><linearGradient x1="14.22989" y1="14.22989" x2="54.98331" y2="54.98331" gradientUnits="userSpaceOnUse" id="color-1"><stop offset="0" stop-color="#000000" stop-opacity="0.3"></stop><stop offset="1" stop-color="#000000" stop-opacity="0"></stop></linearGradient><filter id="dropshadow-base"><feColorMatrix type="matrix" values="0 0 0 0 0  0 0 0 0 0  0 0 0 0 0  0 0 0 .8 0"></feColorMatrix> <feOffset dx="0" dy="1"></feOffset> <feGaussianBlur stdDeviation="1"></feGaussianBlur> <feComposite in="SourceGraphic"></feComposite></filter><filter id="dropshadow-banner" x="-10%" y="-10%" width="120%" height="130%"><feColorMatrix type="matrix" values="0 0 0 0 0  0 0 0 0 0  0 0 0 0 0  0 0 0 .4 0"></feColorMatrix> <feOffset dx="0" dy="1"></feOffset> <feGaussianBlur stdDeviation="0.5"></feGaussianBlur> <feComposite in="SourceGraphic"></feComposite></filter></defs><g fill="none" fill-rule="nonzero" stroke="none" stroke-width="none" stroke-linecap="butt" stroke-linejoin="miter" stroke-miterlimit="10" stroke-dasharray="" stroke-dashoffset="0" font-family="none" font-weight="none" font-size="none" text-anchor="none" style="mix-blend-mode: normal"><path d="M4,40c-1.10457,0 -2,-0.89543 -2,-2v-28c0,-1.10457 0.89543,-2 2,-2h40c1.10457,0 2,0.89543 2,2v28c0,1.10457 -0.89543,2 -2,2z" id="base 1 5" fill="#2196f3" stroke-width="1"></path><path d="M14.86562,33.13438c-0.39284,-0.39284 -0.63573,-0.93562 -0.63573,-1.5354v-15.19795c0,-1.19955 0.97158,-2.17113 2.17113,-2.17113h15.19795c0.59978,0 1.14256,0.24289 1.5354,0.63573l12.86562,12.86562v10.26875c0,1.10457 -0.89543,2 -2,2h-22.26875z" fill="url(#color-1)" stroke-width="1"></path><path d="M33.77011,31.59897v-15.19795c0,-1.19955 -0.97158,-2.17114 -2.17114,-2.17114h-15.19795c-1.19955,0 -2.17114,0.97158 -2.17114,2.17114v15.19795c0,1.19955 0.97158,2.17114 2.17114,2.17114h15.19795c1.19955,0 2.17114,-0.97158 2.17114,-2.17114zM20.20051,25.62835l2.71392,3.26213l3.79949,-4.89048l4.88505,6.51341h-15.19795z" fill="none" stroke-width="0"></path><path d="M31.59897,33.77011h-15.19795c-1.19955,0 -2.17114,-0.97158 -2.17114,-2.17114v-15.19795c0,-1.19955 0.97158,-2.17114 2.17114,-2.17114h15.19795c1.19955,0 2.17114,0.97158 2.17114,2.17114v15.19795c0,1.19955 -0.97158,2.17114 -2.17114,2.17114zM16.40103,30.51341h15.19795l-4.88505,-6.51341l-3.79949,4.89048l-2.71392,-3.26213z" fill="#ffffff" stroke-width="0"></path><path d="M2,24c0,-12.15026 9.84974,-22 22,-22c12.15026,0 22,9.84974 22,22c0,12.15026 -9.84974,22 -22,22c-12.15026,0 -22,-9.84974 -22,-22z" id="base 1 1 1" fill="none" stroke-width="1"></path><g fill="#000000" stroke-width="1" font-family="Roboto, sans-serif" font-weight="400" font-size="14" text-anchor="start"></g><rect x="2" y="2" width="44" height="22" fill="none" stroke-width="1"></rect><path d="M2,24v-22h44v22z" fill="none" stroke-width="1"></path><path d="M2,24v-22h44v22z" fill="none" stroke-width="1"></path><path d="M2,24v-22h44v22z" fill="none" stroke-width="1"></path><path d="M2,24v-22h44v22z" fill="none" stroke-width="1"></path></g></svg>