<?xml version="1.0" encoding="utf-8"?>
<!-- Generator: Adobe Illustrator 19.0.0, SVG Export Plug-In . SVG Version: 6.00 Build 0)  -->
<svg version="1.1" xmlns="http://www.w3.org/2000/svg" xmlns:xlink="http://www.w3.org/1999/xlink" x="0px" y="0px"
	 viewBox="0 0 1280 800" style="enable-background:new 0 0 1280 800;" xml:space="preserve">
<style type="text/css">
	.st0{fill:url(#XMLID_34_);}
	.st1{fill:#FFF59D;}
	.st2{fill:#9FA8DA;}
	.st3{fill:#E8EAF6;}
	.st4{display:none;}
	.st5{display:inline;fill:#E8EAF6;}
	.st6{fill:#EFC75E;}
	.st7{fill:#E2574C;}
	.st8{fill:#CF5349;}
	.st9{fill:#D7B354;}
	.st10{fill:#EBEBEB;}
	.st11{fill:#324D5B;}
	.st12{fill:#CCD0D2;}
</style>
<g id="Calque_1">
	<linearGradient id="XMLID_34_" gradientUnits="userSpaceOnUse" x1="640" y1="800" x2="640" y2="-2.873276e-008">
		<stop  offset="0" style="stop-color:#1A237E"/>
		<stop  offset="1" style="stop-color:#1A233D"/>
	</linearGradient>
	<rect id="XMLID_27_" class="st0" width="1280" height="800"/>
</g>
<g id="lune">
	<g id="XMLID_153_">
		<path id="XMLID_155_" class="st1" d="M165.1,209.9c0-42.7,29.3-78.5,68.8-88.5c-7.2-1.8-14.7-2.8-22.5-2.8
			c-50.4,0-91.3,40.9-91.3,91.3c0,50.4,40.9,91.3,91.3,91.3c7.8,0,15.3-1,22.5-2.8C194.4,288.5,165.1,252.6,165.1,209.9z"/>
	</g>
</g>
<g id="fumee_epaisse">
	<ellipse id="XMLID_108_" class="st2" cx="1047.8" cy="355.7" rx="31.2" ry="34.1"/>
	<ellipse id="XMLID_115_" class="st2" cx="1044.8" cy="396.7" rx="31.2" ry="34.1"/>
	<ellipse id="XMLID_116_" class="st2" cx="1037.8" cy="490.7" rx="31.2" ry="34.1"/>
	<ellipse id="XMLID_117_" class="st2" cx="1006.8" cy="524.7" rx="31.2" ry="34.1"/>
	<ellipse id="XMLID_118_" class="st2" cx="1038.8" cy="430.7" rx="31.2" ry="34.1"/>
	<ellipse id="XMLID_119_" class="st2" cx="984.8" cy="572.7" rx="31.2" ry="34.1"/>
	<ellipse id="XMLID_120_" class="st2" cx="972.8" cy="605.7" rx="31.2" ry="34.1"/>
	<ellipse id="XMLID_121_" class="st2" cx="951.8" cy="693.7" rx="31.2" ry="34.1"/>
	<ellipse id="XMLID_123_" class="st2" cx="903.4" cy="668.8" rx="15.6" ry="17.1"/>
	<ellipse id="XMLID_122_" class="st2" cx="941.8" cy="741.7" rx="13.4" ry="14.6"/>
	<ellipse id="XMLID_114_" class="st2" cx="926" cy="785" rx="22" ry="40"/>
	<ellipse id="XMLID_125_" class="st2" cx="938" cy="733" rx="22" ry="40"/>
	<ellipse id="XMLID_124_" class="st2" cx="1110.8" cy="251.7" rx="4.5" ry="8.6"/>
	<ellipse id="XMLID_126_" class="st2" cx="1121.1" cy="286.6" rx="4.9" ry="13"/>
	<ellipse id="XMLID_128_" class="st2" cx="1128.2" cy="316.9" rx="12.8" ry="20.7"/>
	<ellipse id="XMLID_129_" class="st2" cx="1131.2" cy="329.9" rx="12.8" ry="20.7"/>
	<ellipse id="XMLID_130_" class="st2" cx="1144.2" cy="350.9" rx="12.8" ry="20.7"/>
	<ellipse id="XMLID_131_" class="st2" cx="1147.2" cy="363.9" rx="12.8" ry="20.7"/>
	<ellipse id="XMLID_132_" class="st2" cx="1149.2" cy="373.9" rx="12.8" ry="20.7"/>
	<ellipse id="XMLID_133_" class="st2" cx="1155.2" cy="399.9" rx="12.8" ry="20.7"/>
	<ellipse id="XMLID_134_" class="st2" cx="1160.2" cy="414.9" rx="12.8" ry="20.7"/>
	<ellipse id="XMLID_136_" class="st2" cx="1189.2" cy="467.9" rx="12.8" ry="20.7"/>
	<ellipse id="XMLID_137_" class="st2" cx="1201.9" cy="500.1" rx="8.6" ry="13.9"/>
	<ellipse id="XMLID_138_" class="st2" cx="1201.9" cy="482.1" rx="8.6" ry="13.9"/>
	<ellipse id="XMLID_140_" class="st2" cx="1212.9" cy="581.1" rx="8.6" ry="13.9"/>
	<ellipse id="XMLID_141_" class="st2" cx="1217.9" cy="592.1" rx="8.6" ry="13.9"/>
	<ellipse id="XMLID_142_" class="st2" cx="1219.9" cy="601.1" rx="8.6" ry="13.9"/>
	<ellipse id="XMLID_143_" class="st2" cx="1230.9" cy="616.1" rx="8.6" ry="13.9"/>
	<ellipse id="XMLID_144_" class="st2" cx="1232.9" cy="631.1" rx="8.6" ry="13.9"/>
	<ellipse id="XMLID_145_" class="st2" cx="1244.9" cy="668.1" rx="8.6" ry="13.9"/>
	<ellipse id="XMLID_146_" class="st2" cx="1253.9" cy="680.1" rx="8.6" ry="13.9"/>
	<ellipse id="XMLID_147_" class="st2" cx="1263.9" cy="690.1" rx="8.6" ry="13.9"/>
	<ellipse id="XMLID_148_" class="st2" cx="1268.9" cy="725.1" rx="8.6" ry="13.9"/>
	<ellipse id="XMLID_149_" class="st2" cx="1266.9" cy="704.1" rx="8.6" ry="13.9"/>
	<ellipse id="XMLID_150_" class="st2" cx="1285.9" cy="768.1" rx="8.6" ry="13.9"/>
	<ellipse id="XMLID_151_" class="st2" cx="1285.9" cy="754.1" rx="8.6" ry="13.9"/>
	<ellipse id="XMLID_152_" class="st2" cx="1283.9" cy="735.1" rx="8.6" ry="13.9"/>
	<ellipse id="XMLID_139_" class="st2" cx="1201.9" cy="515.1" rx="8.6" ry="13.9"/>
	<ellipse id="XMLID_135_" class="st2" cx="1218.3" cy="433.6" rx="5" ry="8"/>
</g>
<g id="fumee_legere">
	<polyline id="XMLID_200_" class="st3" points="1110.8,239.4 1135,341.1 1284.1,813 1100,813 908,813 1065.4,341.1 1089.8,239.4 	
		"/>
	<ellipse id="XMLID_199_" class="st3" cx="1087" cy="324.6" rx="37.4" ry="36"/>
	<ellipse id="XMLID_198_" class="st3" cx="1054" cy="360.6" rx="37.4" ry="36"/>
	<ellipse id="XMLID_197_" class="st3" cx="1050" cy="412.6" rx="37.4" ry="36"/>
	<ellipse id="XMLID_196_" class="st3" cx="1050" cy="461.6" rx="37.4" ry="36"/>
	<ellipse id="XMLID_195_" class="st3" cx="1039" cy="516" rx="26.4" ry="25.4"/>
	<ellipse id="XMLID_194_" class="st3" cx="980" cy="603" rx="26.4" ry="25.4"/>
	<ellipse id="XMLID_193_" class="st3" cx="980" cy="641" rx="26.4" ry="25.4"/>
	<ellipse id="XMLID_192_" class="st3" cx="975.6" cy="661.8" rx="22" ry="21.2"/>
	<ellipse id="XMLID_191_" class="st3" cx="957.6" cy="678.8" rx="22" ry="21.2"/>
	<ellipse id="XMLID_190_" class="st3" cx="998" cy="567" rx="26.4" ry="25.4"/>
	<ellipse id="XMLID_189_" class="st3" cx="998" cy="541" rx="26.4" ry="25.4"/>
	<ellipse id="XMLID_188_" class="st3" cx="1024" cy="516" rx="26.4" ry="25.4"/>
	<ellipse id="XMLID_187_" class="st3" cx="941.6" cy="699.9" rx="16" ry="18.1"/>
	<ellipse id="XMLID_186_" class="st3" cx="941.6" cy="729.9" rx="16" ry="18.1"/>
	<ellipse id="XMLID_185_" class="st3" cx="935.6" cy="759.9" rx="16" ry="18.1"/>
	<ellipse id="XMLID_184_" class="st3" cx="925.6" cy="784.9" rx="16" ry="18.1"/>
	<ellipse id="XMLID_183_" class="st3" cx="903.6" cy="802.9" rx="16" ry="18.1"/>
	<ellipse id="XMLID_182_" class="st3" cx="1105.3" cy="321.6" rx="31.1" ry="44"/>
	<ellipse id="XMLID_181_" class="st3" cx="1127.3" cy="368.6" rx="31.1" ry="44"/>
	<ellipse id="XMLID_180_" class="st3" cx="1131.3" cy="420.6" rx="31.1" ry="44"/>
	<ellipse id="XMLID_179_" class="st3" cx="1158.3" cy="456.6" rx="31.1" ry="44"/>
	<ellipse id="XMLID_178_" class="st3" cx="1173.3" cy="511.6" rx="31.1" ry="44"/>
	<ellipse id="XMLID_177_" class="st3" cx="1189.3" cy="559.6" rx="31.1" ry="44"/>
	<ellipse id="XMLID_176_" class="st3" cx="1207.8" cy="610.8" rx="18.6" ry="38.2"/>
	<ellipse id="XMLID_175_" class="st3" cx="1220.8" cy="640.8" rx="18.6" ry="38.2"/>
	<ellipse id="XMLID_174_" class="st3" cx="1249.7" cy="693.8" rx="9.5" ry="21.2"/>
	<ellipse id="XMLID_173_" class="st3" cx="1262.7" cy="703.8" rx="9.5" ry="21.2"/>
	<ellipse id="XMLID_172_" class="st3" cx="1252.7" cy="724.8" rx="9.5" ry="21.2"/>
	<ellipse id="XMLID_171_" class="st3" cx="1262.7" cy="732.8" rx="9.5" ry="21.2"/>
	<ellipse id="XMLID_170_" class="st3" cx="1275.3" cy="758.8" rx="16.1" ry="26.2"/>
	<ellipse id="XMLID_169_" class="st3" cx="1275.3" cy="784.8" rx="16.1" ry="26.2"/>
	<ellipse id="XMLID_168_" class="st3" cx="1284.3" cy="799.8" rx="16.1" ry="26.2"/>
	<ellipse id="XMLID_167_" class="st3" cx="1239.7" cy="672.8" rx="9.5" ry="21.2"/>
	<ellipse id="XMLID_166_" class="st3" cx="1110" cy="247.8" rx="2.8" ry="8.6"/>
	<ellipse id="XMLID_165_" class="st3" cx="1113" cy="255.8" rx="2.8" ry="8.6"/>
	<ellipse id="XMLID_164_" class="st3" cx="1114" cy="261.8" rx="2.8" ry="8.6"/>
	<ellipse id="XMLID_163_" class="st3" cx="1117" cy="270.8" rx="2.8" ry="8.6"/>
	<ellipse id="XMLID_162_" class="st3" cx="1117" cy="277.8" rx="2.8" ry="8.6"/>
	<ellipse id="XMLID_161_" class="st3" cx="1120" cy="279.8" rx="2.8" ry="8.6"/>
	<ellipse id="XMLID_160_" class="st3" cx="1091.5" cy="245.9" rx="3.5" ry="9.6"/>
	<ellipse id="XMLID_159_" class="st3" cx="1087.5" cy="253.9" rx="3.5" ry="9.6"/>
	<ellipse id="XMLID_158_" class="st3" cx="1082.1" cy="270.3" rx="3.1" ry="5.9"/>
	<ellipse id="XMLID_157_" class="st3" cx="1081.1" cy="277.3" rx="3.1" ry="5.9"/>
	<ellipse id="XMLID_156_" class="st3" cx="1085.1" cy="262.3" rx="3.1" ry="5.9"/>
	<ellipse id="XMLID_154_" class="st3" cx="1079.1" cy="286.3" rx="3.1" ry="5.9"/>
</g>
<g id="etoiles" class="st4">
	<ellipse id="XMLID_28_" class="st5" cx="469" cy="186.5" rx="6" ry="5.5"/>
	<ellipse id="XMLID_30_" class="st5" cx="499" cy="247.5" rx="6" ry="5.5"/>
	<ellipse id="XMLID_31_" class="st5" cx="595" cy="215.5" rx="6" ry="5.5"/>
	<ellipse id="XMLID_37_" class="st5" cx="769" cy="134.5" rx="6" ry="5.5"/>
	<ellipse id="XMLID_38_" class="st5" cx="903" cy="260.5" rx="6" ry="5.5"/>
	<ellipse id="XMLID_47_" class="st5" cx="916" cy="467.5" rx="6" ry="5.5"/>
	<ellipse id="XMLID_39_" class="st5" cx="704" cy="597.8" rx="4.9" ry="4.7"/>
	<ellipse id="XMLID_40_" class="st5" cx="391" cy="399.8" rx="4.9" ry="4.7"/>
	<ellipse id="XMLID_41_" class="st5" cx="120" cy="102.8" rx="4.9" ry="4.7"/>
	<ellipse id="XMLID_42_" class="st5" cx="74" cy="481.8" rx="4.9" ry="4.7"/>
	<ellipse id="XMLID_43_" class="st5" cx="148" cy="703.8" rx="4.9" ry="4.7"/>
	<ellipse id="XMLID_44_" class="st5" cx="606" cy="729.8" rx="4.9" ry="4.7"/>
	<ellipse id="XMLID_45_" class="st5" cx="1189" cy="97.8" rx="4.9" ry="4.7"/>
	<ellipse id="XMLID_46_" class="st5" cx="976" cy="92.8" rx="4.9" ry="4.7"/>
	<ellipse id="XMLID_32_" class="st5" cx="583" cy="447.5" rx="6" ry="5.5"/>
	<ellipse id="XMLID_33_" class="st5" cx="271" cy="567.5" rx="6" ry="5.5"/>
	<ellipse id="XMLID_35_" class="st5" cx="463" cy="610.5" rx="6" ry="5.5"/>
	<ellipse id="XMLID_36_" class="st5" cx="757" cy="360.5" rx="6" ry="5.5"/>
</g>
<g id="fusée">
	<g id="XMLID_1_">
		<g id="XMLID_17_">
			<path id="XMLID_26_" class="st6" d="M1100.1,230.5c5.3,0,10.5,3.6,10.5,8.9c0,5.3-5.1,16.3-10.4,16.4c-5.3,0-10.4-11-10.4-16.3
				C1089.8,234.1,1094.8,230.5,1100.1,230.5z"/>
			<path id="XMLID_25_" class="st7" d="M1118.9,199.9c12.4,4.3,22,33.5,11.9,32.6c-4.1-0.4-7.5-4.1-16.9-3.8c0,0,2.1-1.4,2.3-5.4
				C1117.3,214.9,1118.9,200,1118.9,199.9z"/>
			<path id="XMLID_24_" class="st7" d="M1083.3,198.2c-13.1,4.9-24.2,35.6-13.7,34.2c4.3-0.6,8-4.5,17.8-4.6c0,0-2.1-1.4-2.2-5.5
				C1084.4,213.6,1083.3,198.2,1083.3,198.2z"/>
			<path id="XMLID_23_" class="st8" d="M1078.4,201.2l-0.4,0.4c0.4,4.4,1.6,15.2,2.4,21.9c0.1,2.5,1,4,1.6,4.8c1-0.2,2-0.3,3.2-0.4
				c-0.6-0.9-1.2-2.2-1.2-4.3c-1.1-8.6-2.6-23.9-2.6-23.9C1080.3,200,1079.4,200.6,1078.4,201.2z"/>
			<path id="XMLID_22_" class="st8" d="M1119.1,200c-0.2,2.2-1.5,15.7-2.5,23.6c-0.1,2.8-1.2,4.4-1.8,5c1.3,0,2.4,0.1,3.5,0.2
				c0.6-0.6,1.8-2.2,1.9-5.2c0.8-6.6,1.9-17.2,2.3-21.7C1121.4,201.1,1120.3,200.5,1119.1,200z"/>
			<path id="XMLID_21_" class="st9" d="M1091.5,234.5c2,1.3,5.2,2.1,8.7,2.1c3.5,0,6.6-0.8,8.7-2.1c-2-2.5-5.3-4-8.8-4
				C1096.7,230.5,1093.4,232,1091.5,234.5z"/>
			<path id="XMLID_20_" class="st10" d="M1100.2,151.3c2.6-0.1,19.5,20.8,19.4,46.5c-0.1,15.9-2.3,24.3-2.4,26.6
				c-1.9,5.1-3.4,8.3-17.2,8.3c-13.8,0-14.4-3.2-16.1-8c-0.1-2.4-2.3-10.9-2.2-26.8C1081.6,172.2,1097.5,151.4,1100.2,151.3z"/>
			<path id="XMLID_19_" class="st11" d="M1100.1,183.5c5.6,0,10.1,4.5,10.1,10.1c0,5.6-4.5,10.1-10.1,10.1
				c-5.6,0-10.1-4.5-10.1-10.1C1090.1,188,1094.6,183.5,1100.1,183.5z"/>
			<path id="XMLID_18_" class="st12" d="M1100.2,188.5c2.8,0,5,2.2,5,5c0,2.8-2.3,5.1-5.1,5.1c-2.8,0-5-2.2-5-5
				C1095.1,190.8,1097.4,188.5,1100.2,188.5z"/>
		</g>
		<g id="XMLID_16_">
		</g>
		<g id="XMLID_15_">
		</g>
		<g id="XMLID_14_">
		</g>
		<g id="XMLID_13_">
		</g>
		<g id="XMLID_12_">
		</g>
		<g id="XMLID_11_">
		</g>
		<g id="XMLID_10_">
		</g>
		<g id="XMLID_9_">
		</g>
		<g id="XMLID_8_">
		</g>
		<g id="XMLID_7_">
		</g>
		<g id="XMLID_6_">
		</g>
		<g id="XMLID_5_">
		</g>
		<g id="XMLID_4_">
		</g>
		<g id="XMLID_3_">
		</g>
		<g id="XMLID_2_">
		</g>
	</g>
</g>
</svg>
